<?xml version="1.0" encoding="UTF-8" standalone="no"?><!DOCTYPE svg PUBLIC "-//W3C//DTD SVG 1.1//EN" "http://www.w3.org/Graphics/SVG/1.1/DTD/svg11.dtd"><svg width="100%" height="100%" viewBox="0 0 1127 346" version="1.1" xmlns="http://www.w3.org/2000/svg" xmlns:xlink="http://www.w3.org/1999/xlink" xml:space="preserve" xmlns:serif="http://www.serif.com/" style="fill-rule:evenodd;clip-rule:evenodd;stroke-linejoin:round;stroke-miterlimit:2;"><g><g><path d="M1078.1,3.936c5.668,1.27 11.238,2.931 16.222,6.156c12.117,8.111 19.153,19.349 19.251,34.007c0.098,85.702 0.098,171.307 0.098,257.008c0,21.695 -18.568,40.262 -40.36,40.262c-56.287,0 -112.575,0 -168.863,0.098c-2.052,0 -3.224,-0.587 -4.104,-2.541c-10.163,-21.01 -20.424,-41.923 -30.587,-62.835c-8.013,-16.515 -15.831,-33.03 -24.137,-49.35c-2.639,-5.081 -2.639,-8.599 1.173,-13.485c20.033,-25.799 39.577,-52.086 59.219,-78.178c20.521,-27.166 41.141,-54.333 61.662,-81.597c12.509,-16.515 25.017,-33.128 37.428,-49.643c24.235,0.098 48.665,0.098 72.998,0.098Z" style="fill:#fff;fill-rule:nonzero;"/></g><g><path d="M947.15,3.936c-3.225,4.984 -7.134,9.576 -10.847,14.267c-13.975,18.079 -28.046,35.962 -42.118,54.04c-22.574,28.926 -45.05,57.754 -67.624,86.679c-16.026,20.522 -31.955,41.044 -47.981,61.565c-22.574,28.926 -45.05,57.754 -67.624,86.679c-1.075,1.368 -2.149,2.639 -3.127,4.007c-1.075,1.466 -1.661,0.977 -2.052,-0.489c-0.879,-3.811 -1.466,-7.622 -1.466,-11.531l0,-201.795c0,-17.199 -0.097,-34.301 0,-51.5c0.196,-15.44 6.841,-27.459 19.838,-35.863c4.886,-3.225 10.358,-4.789 16.026,-5.962c69.089,-0.097 138.081,-0.097 206.975,-0.097Zm-194.564,92.738l-27.069,0c-2.443,0 -2.541,0.195 -1.564,2.345c7.916,16.613 15.831,33.225 23.747,49.838c3.811,8.013 7.524,16.026 11.433,23.942c4.593,9.577 9.186,19.153 13.779,28.828c0.684,1.466 1.27,1.27 2.052,0.195c1.173,-1.466 2.345,-2.931 3.518,-4.397c9.87,-12.411 19.74,-24.822 29.61,-37.135c1.075,-1.27 1.466,-2.345 0.684,-4.104c-8.697,-18.86 -17.297,-37.818 -25.896,-56.776c-0.978,-2.052 -2.248,-2.736 -4.496,-2.736c-8.599,0.097 -17.199,0 -25.798,0Z" style="fill:#fff;fill-rule:nonzero;"/></g><g><path d="M12.833,154.427c39.088,0 78.177,-0.098 117.168,0.098c10.652,0.098 21.206,1.466 31.173,5.863c14.268,6.352 22.183,17.395 24.137,32.835c1.075,8.208 0.489,16.319 -2.345,24.039c-2.541,6.841 -6.84,12.313 -12.704,16.613c-2.052,1.563 -2.052,1.661 0.196,2.932c9.772,5.961 17.98,13.583 23.16,24.039c4.69,9.381 6.156,19.349 5.374,29.805c-0.879,10.359 -3.811,19.838 -10.163,28.046c-8.697,11.336 -20.521,17.493 -34.202,20.522c-5.961,1.27 -11.922,1.954 -17.981,1.954l-121.37,0c-0.782,0 -1.564,-0.097 -2.346,-0.097c-0.097,-62.054 -0.097,-124.302 -0.097,-186.649Zm79.545,98.895l-46.613,0c-3.518,0 -3.518,0 -3.518,3.42l0,54.04c0,3.518 0,3.518 3.42,3.518l85.702,0c3.909,0 7.72,-0.098 11.629,-0.391c11.922,-1.075 21.108,-8.404 24.333,-19.838c2.149,-7.622 1.954,-15.244 -0.587,-22.671c-2.54,-7.329 -7.524,-12.411 -14.658,-15.342c-4.495,-1.857 -9.284,-2.639 -14.072,-2.639c-15.244,-0.097 -30.391,-0.097 -45.636,-0.097Zm37.916,-71.337l-84.529,0c-3.42,0 -3.42,0 -3.42,3.322l0,37.037c0,3.322 0,3.322 3.42,3.322c25.896,0 51.89,0.098 77.786,-0.097c4.398,0 8.795,-0.098 13.193,-0.88c10.749,-1.759 16.906,-7.622 18.469,-17.688c1.466,-9.185 -2.345,-17.687 -9.674,-21.498c-4.789,-2.541 -9.968,-3.518 -15.245,-3.518Z" style="fill:#fff;fill-rule:nonzero;"/></g><g><path d="M241.11,247.849l0,-89.708c0,-3.714 0,-3.714 3.714,-3.714c42.02,0 84.041,-0.098 126.061,0.098c12.215,0 24.137,1.857 35.082,7.818c14.267,7.72 22.671,19.544 24.821,35.57c1.368,10.457 0.684,20.815 -3.811,30.587c-6.743,14.561 -17.883,24.137 -33.127,28.926c-1.955,0.586 -4.007,1.075 -6.059,1.563c-1.759,0.391 -2.052,0.978 -1.075,2.541c4.104,6.45 8.208,12.997 12.313,19.545c12.215,19.348 24.43,38.697 36.743,58.144c0.391,0.586 1.075,1.173 0.782,1.857c-0.391,0.879 -1.368,0.488 -2.052,0.488l-27.069,0c-1.661,0 -2.736,-0.684 -3.616,-2.052c-16.026,-24.724 -32.053,-49.349 -47.981,-74.073c-3.518,-5.472 -3.42,-5.472 -9.87,-5.472l-71.044,0c-3.713,0 -3.713,0 -3.713,3.713l0,74.366c0,3.616 0,3.616 -3.616,3.616l-22.867,0c-3.322,0 -3.42,-0.098 -3.42,-3.42c-0.196,-30.294 -0.196,-60.295 -0.196,-90.393Zm83.259,-65.864l-50.033,0c-3.225,0 -3.225,0 -3.225,3.225l0,43.29c0,3.616 0,3.616 3.518,3.616l94.595,0c3.713,0 7.426,-0.293 11.14,-0.977c5.863,-1.173 11.14,-3.323 15.244,-7.916c5.571,-6.352 6.255,-13.778 5.082,-21.694c-1.173,-7.915 -5.766,-13.388 -12.997,-16.613c-4.691,-2.052 -9.674,-2.931 -14.756,-3.029c-16.319,0.098 -32.444,0.098 -48.568,0.098Z" style="fill:#fff;fill-rule:nonzero;"/></g><g><path d="M613.43,284.202l0,-126.257c0,-3.909 0,-3.909 4.007,-3.909l21.889,0c2.932,0 3.128,0.196 3.128,2.932l0,181.469c0,2.15 -0.587,3.127 -2.932,3.03c-3.518,-0.196 -7.036,-0.098 -10.456,0c-1.759,0.097 -2.932,-0.587 -4.007,-1.857c-8.013,-8.991 -16.124,-17.883 -24.137,-26.776c-6.548,-7.231 -13.095,-14.365 -19.545,-21.499c-10.065,-11.14 -20.228,-22.28 -30.293,-33.518c-6.254,-6.938 -12.509,-13.779 -18.763,-20.717c-7.231,-8.013 -14.463,-16.027 -21.694,-23.942c-0.391,-0.489 -0.782,-0.977 -1.564,-1.173c-0.684,0.88 -0.39,1.955 -0.39,2.834l0,124.595c0,1.368 -0.587,1.955 -1.955,1.955l-25.408,0c-1.368,0 -2.052,-0.587 -1.954,-1.955l0,-181.469c0,-4.006 0,-4.006 4.007,-4.006l9.283,0c1.564,0 2.639,0.586 3.616,1.661c6.547,7.231 12.997,14.365 19.544,21.596c5.179,5.668 10.261,11.434 15.44,17.102c10.066,11.14 20.229,22.378 30.294,33.518c8.111,8.991 16.319,17.883 24.43,26.874c8.014,8.892 16.027,17.785 23.942,26.678c0.977,1.075 1.955,2.15 2.932,3.224c0.195,-0.195 0.391,-0.293 0.586,-0.39Z" style="fill:#fff;fill-rule:nonzero;"/></g><g><path d="M792.749,341.369l-46.32,0c-0.781,0 -1.759,0.391 -2.149,-0.391c-0.391,-0.782 0.586,-1.368 1.074,-1.857c13.584,-16.808 27.069,-33.518 40.653,-50.326c5.863,-7.33 11.824,-14.561 17.687,-21.89c1.955,-2.345 2.052,-2.345 3.323,0.293c9.967,20.912 19.837,41.727 29.707,62.64c1.466,3.029 2.932,6.058 4.3,9.088c1.075,2.247 0.88,2.443 -1.661,2.443c-15.538,0.098 -31.076,0 -46.614,0Z" style="fill:#fff;fill-rule:nonzero;"/></g></g></svg>